<svg width="13" height="25" viewBox="0 0 13 25" fill="none" xmlns="http://www.w3.org/2000/svg">
<path d="M2.93684 4.82447C2.93684 4.66863 2.95849 4.33206 3.00177 3.81693C3.04831 3.30072 3.24311 2.7607 3.59266 2.19363C3.93896 1.62872 4.50063 1.12116 5.28198 0.672049C6.06008 0.225098 7.18449 0 8.65196 0H12.786V4.50522H9.75906C9.45929 4.50522 9.18008 4.61777 8.92792 4.83962C8.67794 5.06147 8.54915 5.2725 8.54915 5.46838V8.27129H12.7849C12.7405 8.81996 12.6918 9.35349 12.6356 9.86862L12.4678 11.23C12.4007 11.69 12.3325 12.1164 12.2654 12.5092H8.51885V25H2.93684V12.5081H0.214016V8.27129H2.93684V4.82447Z" fill="black"/>
</svg>
