<svg width="25" height="25" viewBox="0 0 25 25" fill="none" xmlns="http://www.w3.org/2000/svg">
<path d="M3.00478 0.0214844C1.34429 0.0214844 0.000268644 1.36793 0 3.02465C0 4.68299 1.34403 6.02917 3.00505 6.02917C4.66151 6.02917 6.00742 4.68299 6.00742 3.02465C6.00742 1.36766 4.66124 0.0214844 3.00478 0.0214844Z" fill="black"/>
<path d="M5.59451 8.30811H0.413174V24.9785H5.59451V8.30811Z" fill="black"/>
<path d="M18.7849 7.89355C16.2645 7.89355 14.5745 9.27546 13.8827 10.5859H13.8134V8.30807H8.84403H8.84376V24.9782H14.0205V16.7314C14.0205 14.5573 14.4345 12.4514 17.1301 12.4514C19.787 12.4514 19.8224 14.9379 19.8224 16.8708V24.978H25V15.8344C25 11.3462 24.0315 7.89355 18.7849 7.89355Z" fill="black"/>
</svg>
