<svg width="25" height="25" viewBox="0 0 25 25" fill="none" xmlns="http://www.w3.org/2000/svg">
<path d="M3.21 0.000976562H21.7915C23.5568 0.000976562 25 1.44464 25 3.20998V21.7915C25 23.5563 23.5568 24.999 21.7915 24.999H3.21C1.44467 24.999 0 23.5562 0 21.7915V3.20998C0 1.44464 1.44467 0.000976562 3.21 0.000976562ZM18.2122 2.77739C17.5923 2.77739 17.0868 3.28498 17.0868 3.90448V6.59731C17.0868 7.21706 17.5923 7.72348 18.2122 7.72348H21.0374C21.6563 7.72348 22.1629 7.21706 22.1629 6.59731V3.90448C22.1629 3.28498 21.6563 2.77739 21.0374 2.77739H18.2122ZM22.1737 10.5723H19.974C20.1826 11.2536 20.2957 11.972 20.2957 12.7189C20.2957 16.8757 16.8152 20.2472 12.5235 20.2472C8.23292 20.2472 4.75233 16.8757 4.75233 12.7189C4.75233 11.972 4.8665 11.2536 5.07408 10.5723H2.77917V21.1333C2.77917 21.6802 3.22575 22.1251 3.77217 22.1251H21.1811C21.728 22.1251 22.1737 21.6802 22.1737 21.1333V10.5723ZM12.5236 7.58148C9.75192 7.58148 7.50358 9.75881 7.50358 12.4471C7.50358 15.1327 9.75192 17.3117 12.5236 17.3117C15.2968 17.3117 17.5452 15.1327 17.5452 12.4471C17.5452 9.75873 15.2968 7.58148 12.5236 7.58148Z" fill="black"/>
</svg>
