<svg width="194" height="21" viewBox="0 0 194 21" fill="none" xmlns="http://www.w3.org/2000/svg">
<path d="M25.2126 0.801392C23.4899 0.801392 22.103 2.17383 22.103 3.87862V15.4182C22.103 17.123 23.4899 18.4954 25.2126 18.4954H29.3587V20.8033H33.2457V18.4954H37.6509C39.3736 18.4954 40.7604 17.123 40.7604 15.4182V3.87862C40.7604 2.17383 39.3736 0.801392 37.6509 0.801392H25.2126ZM25.99 3.87862H36.6144V15.1618H33.2457V13.3667H29.3587V15.1618H25.99V3.87862ZM3.70474 0.801392C1.98203 0.801392 0.595166 2.17383 0.595166 3.87862V7.98158C0.595166 9.68636 1.98203 11.0588 3.70474 11.0588H15.6248V15.1618H0.0769043V15.4182C0.0769043 17.123 1.46377 18.4954 3.18647 18.4954H15.8839C17.6066 18.4954 18.9935 17.123 18.9935 15.4182V10.8024C18.9935 9.09759 17.6066 7.72514 15.8839 7.72514H3.96387V3.87862H15.1065V5.41723H18.7343V3.87862C18.7343 2.17383 17.3475 0.801392 15.6248 0.801392H3.70474ZM43.87 0.801392V15.4182C43.87 17.123 45.2569 18.4954 46.9796 18.4954H58.1222C59.8449 18.4954 61.2318 17.123 61.2318 15.4182V0.801392H57.3448V15.1618H47.757V0.801392H46.9796H43.87ZM70.9492 1.05783L62.0092 18.4954H65.8961L67.872 14.6489H77.9133L79.8892 18.4954H83.7762L74.8362 1.05783L74.7066 0.801392H71.0788L70.9492 1.05783ZM72.8927 4.8482L76.3425 11.5717H69.4431L72.8927 4.8482ZM85.5901 0.801392V18.4954H89.4771V11.8281H91.9388L98.4171 18.4954H103.6L97.1214 11.8281H99.0649C100.788 11.8281 102.174 10.4557 102.174 8.75089V3.87862C102.174 2.17383 100.788 0.801392 99.0649 0.801392H88.6997H85.5901ZM89.4771 3.87862H97.251C97.8252 3.87862 98.2875 4.3361 98.2875 4.90436V7.72514C98.2875 8.29341 97.8252 8.75089 97.251 8.75089H89.4771V3.87862ZM105.543 0.801392V18.4954H120.573V15.1618H109.43V3.87862H120.573V0.801392H105.543Z" fill="black"/>
<path d="M112.799 7.7251H119.277V11.0587H112.799V7.7251Z" fill="#E20A16"/>
<path d="M128.865 0.801392V18.4955H143.895V15.1618H132.752V3.87862H143.895V0.801392H128.865Z" fill="black"/>
<path d="M136.121 7.7251H142.599V11.0587H136.121V7.7251Z" fill="#E20A16"/>
<path d="M147.004 0.801392V18.4955H150.632V5.97832L159.961 16.9892L160.22 17.2938L161.24 18.4955H163.848V0.801392H159.961V12.7098L150.632 1.69892L149.871 0.801392H147.004ZM166.957 0.801392H171.103V18.4955H166.957V0.801392ZM173.16 0.801392L180.942 9.352L173.112 18.4955H177.776L183.347 11.9964L189.259 18.4955H193.923L185.607 9.352L192.935 0.801392H188.271L183.201 6.71558L177.825 0.801392H173.16Z" fill="black"/>
</svg>
