<svg width="25" height="21" viewBox="0 0 25 21" fill="none" xmlns="http://www.w3.org/2000/svg">
<path d="M24.8495 2.58396C24.713 2.45163 24.5174 2.40799 24.3393 2.46991L23.4963 2.76081C23.9928 2.15989 24.3593 1.53229 24.5522 0.937325C24.6082 0.763894 24.5573 0.571797 24.4228 0.448357C24.2876 0.324087 24.0912 0.288903 23.9207 0.360152C22.7384 0.855912 21.6922 1.28761 20.8602 1.54587C20.8293 1.55564 20.7974 1.55139 20.7656 1.53356C20.1024 1.16207 18.4421 0.308841 17.2628 0.322426C14.2803 0.377109 11.8534 2.92579 11.8534 6.0041V6.17245C7.46172 5.3222 5.03476 4.05888 2.40682 1.30202L1.99633 0.871159L1.72321 1.39995C0.296675 4.1594 1.30808 6.63258 2.9751 8.29833C2.23637 8.1851 1.6999 7.94721 1.24827 7.55324C1.07484 7.40312 0.828841 7.38446 0.635472 7.50746C0.445085 7.62874 0.35815 7.85564 0.419625 8.07187C0.980672 10.057 2.48315 11.6871 4.06919 12.6612C3.3029 12.6603 2.67232 12.5751 2.03831 12.1676C1.85384 12.0488 1.6138 12.0611 1.44164 12.1972C1.27075 12.3329 1.20502 12.5619 1.27793 12.7676C2.05102 14.9388 3.49666 16.0809 5.89224 16.3654C4.66073 17.0855 3.06287 17.6546 0.568035 17.7067C0.324627 17.7118 0.10917 17.87 0.0311776 18.0998C-0.0468148 18.3289 0.0244339 18.5748 0.21228 18.7258C1.72834 19.9479 5.12893 20.6778 9.309 20.6778C16.7917 20.6778 22.8793 14.0194 22.8793 5.83531V5.69154C23.8474 5.22886 24.5861 4.31587 24.9767 3.08818C25.0335 2.90922 24.9848 2.71586 24.8495 2.58396Z" fill="black"/>
</svg>
