<svg width="58" height="58" viewBox="0 0 58 58" fill="none" xmlns="http://www.w3.org/2000/svg">
<rect x="1" y="1" width="56" height="56" fill="white" stroke="black" stroke-width="2"/>
<path d="M13.752 21.688H6.136V17.2H26.876V21.688H19.26V41H13.752V21.688Z" fill="black"/>
<path d="M45.0036 41L40.4136 34.37H40.1416H35.3476V41H29.8396V17.2H40.1416C42.2496 17.2 44.0742 17.5513 45.6156 18.254C47.1796 18.9567 48.3809 19.954 49.2196 21.246C50.0582 22.538 50.4776 24.068 50.4776 25.836C50.4776 27.604 50.0469 29.134 49.1856 30.426C48.3469 31.6953 47.1456 32.67 45.5816 33.35L50.9196 41H45.0036ZM44.9016 25.836C44.9016 24.4987 44.4709 23.4787 43.6096 22.776C42.7482 22.0507 41.4902 21.688 39.8356 21.688H35.3476V29.984H39.8356C41.4902 29.984 42.7482 29.6213 43.6096 28.896C44.4709 28.1707 44.9016 27.1507 44.9016 25.836Z" fill="#6B0505"/>
</svg>
